<svg xmlns="http://www.w3.org/2000/svg" version="1.1" xmlns:xlink="http://www.w3.org/1999/xlink" viewBox="0 0 3.6630366926373648 3.1128377090805093"><g transform="matrix(0.846456251436088,0,0,0.846456251436088,1.8214083585698917,2.7935914857014543)"><g transform="matrix(1,0,0,1,0,0)"><path d=" M -0.9165148216619776 -2.5013525257822726 L -0.844143736405006 -2.419453648996763 L -0.7686425675648278 -1.8297642616886929 Q -0.7686425675648278 -1.8297642616886929 -0.7660035939473362 -1.8097821242092795 Q -0.7633646203298443 -1.789799986729866 -0.7557861404154684 -1.7641520503179944 Q -0.7482076605010926 -1.738504113906123 -0.7330689889256932 -1.7186088726929034 L -0.7410270854109811 -1.7125534040627437 L -0.8247462387859936 -1.758172515827125 L -0.9165148216619776 -2.5013525257822726 M -1.0679182241712541 -1.5806777679504889 L -1.0237133031710879 -1.5225836636078875 L -1.1120481741577832 -1.4553679618131141 L -1.118103642787943 -1.463326058298402 Q -1.1173078331394142 -1.463931605161418 -1.1113392607754482 -1.4684732066340378 Q -1.1053706884114824 -1.4730148081066576 -1.1053706884114824 -1.4730148081066576 Q -1.083883827901205 -1.489364573408089 -1.0771633485218641 -1.5152119167321494 Q -1.0704428691425234 -1.5410592600562099 -1.0854260364388875 -1.5673557369641373 L -1.0679182241712541 -1.5806777679504889 M -1.023213849827732 -1.5945888755467312 Q -1.022608302964716 -1.5937930658982025 -1.0220027561017 -1.5929972562496737 Q -1.021397209238684 -1.592201446601145 -1.0201861155126521 -1.5906098273040872 Q -1.0104973657043965 -1.5778768729276267 -0.9931706720955997 -1.5740972315971717 Q -0.9758439784868029 -1.570317590266717 -0.9631110241103424 -1.5800063400749726 L -0.9503780697338818 -1.5896950898832283 L -0.9449281479667381 -1.5825328030464691 L -0.9942683461755228 -1.5449888975394785 L -1.0287845173674335 -1.5903500475056194 L -1.023213849827732 -1.5945888755467312 M -1.407529374804239 -2.1277301113014158 L -1.4003670879674797 -2.1331800330685593 L -1.3119590639673746 -2.07479320842124 L -0.993472536526994 -1.5455944444024945 L -1.0483834022754803 -1.5038117108543922 L -1.407529374804239 -2.1277301113014158 M -1.4003670879674797 -2.1331800330685593 L -0.8149586674589875 -1.9038440760148252 L -0.7410270854109811 -1.7125534040627437 L -1.277543532294442 -1.9288289279288215 L -1.4003670879674797 -2.1331800330685593 M -0.9093525348252185 -2.5068024475494166 L -0.40139015802157696 -1.9961213104863809 L -0.5295155114347115 -1.8986282655408087 L -0.8478575508484999 -2.2344233607132518 L -0.9165148216619776 -2.5013525257822726 L -0.9093525348252185 -2.5068024475494166 M -0.47026517812613555 -2.035443462075487 L -0.453553175507031 -2.0481599461988225 Q -0.4314077213739078 -2.0273133910580388 -0.4047041955150398 -2.026899015980649 Q -0.3780006696561715 -2.0264846409032597 -0.35730961879442313 -2.0422288593416753 Q -0.35730961879442313 -2.0422288593416753 -0.3509431416061928 -2.047073234245803 Q -0.34457666441796253 -2.051917609149931 -0.34457666441796253 -2.051917609149931 L -0.3385211957878028 -2.043959512664643 L -0.4260602571259693 -1.9773493577328856 L -0.47026517812613555 -2.035443462075487 M -0.5688065405177949 -1.9403561343288536 L -0.5632358729780934 -1.9445949623699654 L -0.5287197017861828 -1.8992338124038246 L -0.5772640903464387 -1.8622954537598502 L -0.5827140121135824 -1.869457740596609 L -0.5707768673856507 -1.8785409435418488 Q -0.5572481033606613 -1.8888352402131203 -0.5566690798775604 -1.9062396859614348 Q -0.5560900563944594 -1.9236441317097492 -0.565778806202715 -1.9363770860862097 Q -0.5669898999287469 -1.9379687053832673 -0.567595446791763 -1.938764515031796 Q -0.5682009936547789 -1.9395603246803248 -0.5688065405177949 -1.9403561343288536 M 0.16396280097990568 -2.686967897174636 Q 0.2815272531537577 -2.6768387518473116 0.363561610870198 -2.627113364427492 Q 0.4455959685866383 -2.577387977007673 0.4851858763653595 -2.4951861570638765 Q 0.5247757841440808 -2.41298433712008 0.5155050409631392 -2.3053829741135035 Q 0.5062342977821978 -2.1977816111069273 0.4531674763052559 -2.123562931124497 Q 0.40010065482831414 -2.0493442511420668 0.3107698788676144 -2.014383380640043 Q 0.2214391029069145 -1.9794225101380198 0.10387465073306251 -1.989551655465345 L -0.13324687144809655 -2.0099816265492714 L -0.13063789135001352 -2.0519124412664675 Q -0.10174493276491431 -2.0494230750419553 -0.07036120188799619 -2.0467191082808474 Q -0.03897747101107807 -2.0440151415197394 -0.009586357967615089 -2.0414828551879083 Q 0.019804755075847946 -2.038950568856077 0.04371616907730935 -2.036890403704757 Q 0.06762758307877076 -2.0348302385534365 0.0815759079129566 -2.0336284755484995 Q 0.09552423274714239 -2.0324267125435624 0.09552423274714239 -2.0324267125435624 Q 0.16725847475152666 -2.0262462170896014 0.22228554647029775 -2.059144110305691 Q 0.27731261818906894 -2.0920420035217804 0.3111322426674864 -2.158383792766108 Q 0.3449518671459041 -2.224725582010436 0.35310668753654706 -2.319374929099554 Q 0.36126150792719014 -2.4140242761886723 0.33928783306886434 -2.4851731174527476 Q 0.31731415821053877 -2.556321958716823 0.26872510258964366 -2.5981472342553005 Q 0.22013604696874867 -2.639972509793778 0.1484018049643644 -2.646153005247739 Q 0.1484018049643644 -2.646153005247739 0.13395532567181478 -2.647397688359995 Q 0.11950884637926518 -2.648642371472251 0.09460112346107624 -2.65078837683821 Q 0.06969340054288725 -2.6529343822041684 0.038807824124332924 -2.655595428857957 Q 0.007922247705778596 -2.658256475511746 -0.0249559465462309 -2.6610892025948116 Q -0.05783414079824034 -2.663921929677877 -0.08772340830006709 -2.6664971361170275 L -0.0841181192852565 -2.7083421106195846 L 0.16396280097990568 -2.686967897174636 M 0.028464788304957633 -2.6986421663654516 L -0.03162336194188553 -2.0012259246561603 L -0.1810696994510194 -2.014101956851912 L -0.1209815492041762 -2.711518198561204 L 0.028464788304957633 -2.6986421663654516 M -0.17181443703223734 -2.086574987129109 L -0.17808077270083672 -2.013844436207997 L -0.25778548603904144 -2.020711653379065 L -0.25692708389265795 -2.0306747425463407 Q -0.25692708389265795 -2.0306747425463407 -0.25045107593392885 -2.0301167811511913 Q -0.2439750679751997 -2.029558819756042 -0.2439750679751997 -2.029558819756042 Q -0.21807103614028317 -2.027326974175445 -0.1980512772100139 -2.0441706451640953 Q -0.17803151827974462 -2.061014316152746 -0.17480336378242003 -2.086832507773024 L -0.17181443703223734 -2.086574987129109 M -0.12425895812259288 -2.638530126996177 L -0.12724788487277555 -2.638787647640092 Q -0.12501603929217853 -2.664691679475008 -0.14235786473919274 -2.684754358512597 Q -0.15969969018620692 -2.7048170375501854 -0.18560372202112346 -2.707048883130782 Q -0.18560372202112346 -2.707048883130782 -0.1915815755214888 -2.7075639244186123 Q -0.19755942902185417 -2.7080789657064424 -0.19755942902185417 -2.7080789657064424 L -0.19769733579219825 -2.7181278950883563 L -0.11799262245399353 -2.7112606779172888 L -0.12425895812259288 -2.638530126996177 M 1.190169248165724 -2.2790775214714127 L 1.2857443130893558 -2.192437998360747 Q 1.3190844520162042 -2.1622149089035383 1.344226564889146 -2.125926148105128 Q 1.3693686777620881 -2.0896373873067176 1.379412826339662 -2.050838352791003 Q 1.3894569749172359 -2.012039318275288 1.3800963428745125 -1.9719347229306055 Q 1.370735710831789 -1.9318301275859229 1.3351396276932985 -1.892562852849857 Q 1.3069314108665702 -1.8614453898514651 1.2660933965622587 -1.8424517965189529 Q 1.2252553822579473 -1.8234582031864406 1.178770356916743 -1.8257803614557182 Q 1.1322853315755383 -1.828102519724996 1.0860247436739026 -1.8619397478472142 Q 1.1030170448091705 -1.833038853360566 1.1051884527130382 -1.7959776204113638 Q 1.107359860616906 -1.7589163874621618 1.1024927947473282 -1.7282355845094817 Q 1.10189043830316 -1.726082176347017 1.0989238166901947 -1.7071758505219001 Q 1.0959571950772293 -1.688269524696783 1.0916578517688236 -1.6604483879997236 Q 1.0873585084604178 -1.6326272513026643 1.0838346910111603 -1.6034282323022884 Q 1.0803108735619027 -1.5742292133019125 1.0785941254451497 -1.5514904187889305 Q 1.0767598952461725 -1.516710602809297 1.0790141513492686 -1.4923966494199024 Q 1.0812684074523646 -1.4680826960305078 1.0910490653992069 -1.4490935220061625 Q 1.1008297233460491 -1.4301043479818172 1.1194212905158456 -1.4119012265414996 L 1.1127050484142438 -1.404492306779978 L 1.0400976347513295 -1.4703114793756773 Q 1.0000894680391115 -1.506579186724328 0.9742064631900174 -1.5435395717328986 Q 0.9483234583409232 -1.580499956741469 0.9382446758803533 -1.6200052493503398 Q 0.9281658934197834 -1.6595105419592109 0.9358369382122266 -1.705195934283151 Q 0.9379692929249315 -1.7194596316782589 0.9433558670394493 -1.7395465632335962 Q 0.9487424411539672 -1.7596334947889334 0.9554376298058095 -1.7819084683897315 Q 0.9621328184576519 -1.8041834419905292 0.9681910167823299 -1.8250112655220188 Q 0.974249215107008 -1.8458390890535081 0.9798089586365059 -1.8623947301430646 Q 0.9853687021660038 -1.878950371232621 0.9891906441289889 -1.8876332716484712 Q 1.0010510231641367 -1.9200729296174237 0.9988314009440368 -1.9436806249136622 Q 0.9966117787239367 -1.9672883202099005 0.9838088118313736 -1.982943480341561 L 0.9905250539329755 -1.990352400103083 Q 0.9927477298614321 -1.9883375274726023 0.9994157576468018 -1.9822929095811606 Q 1.0060837854321716 -1.9762482916897188 1.0134927051936933 -1.9695320495881168 Q 1.0334967885498023 -1.9513981959137914 1.0597774002534452 -1.9424215902923805 Q 1.0860580119570882 -1.9334449846709694 1.1176664567341368 -1.93853479987157 Q 1.1492749015111854 -1.9436246150721708 1.1847535025674516 -1.9708508683415853 Q 1.1922799044111978 -1.9761756477066346 1.2014507328973485 -1.9840589151052206 Q 1.210621561383499 -1.9919421825038066 1.21995503255975 -2.0037271863562496 Q 1.2660892997628275 -2.0590862812696873 1.2641392755901721 -2.106069761406072 Q 1.2621892514175166 -2.153053241542457 1.2265571687962198 -2.186703719816459 Q 1.2168563053402492 -2.1968473507348536 1.204295775628658 -2.207558704214421 Q 1.191735245917067 -2.218270057693988 1.1817332042390125 -2.227336984531151 Q 1.1717311625609579 -2.2364039113683134 1.168026702680197 -2.2397620324191143 Q 1.1686983268903572 -2.2405029243952668 1.1738981511566589 -2.249961350670265 Q 1.1790979754229605 -2.2594197769452635 1.1846336117943421 -2.269248649208338 Q 1.190169248165724 -2.2790775214714127 1.190169248165724 -2.2790775214714127 M 1.1998008438557024 -2.27034640673933 L 0.7296638967435638 -1.7517220234328001 L 0.6185301003207361 -1.85246565495683 L 1.0886670474328746 -2.3710900382633597 L 1.1998008438557024 -2.27034640673933 M 0.669781343590887 -1.9045358965854589 L 0.6207527762491926 -1.8504507823263492 L 0.5614814181570178 -1.904180719139165 L 0.5681976602586197 -1.911589638900687 Q 0.5689385522347719 -1.9109180146905267 0.5730134581036089 -1.9072240815346457 Q 0.577088363972446 -1.9035301483787646 0.5778292559485981 -1.9028585241686042 Q 0.5970924473285549 -1.8853962947044391 0.623223996775334 -1.886677748375291 Q 0.6493555462221131 -1.8879592020461426 0.6675586676624304 -1.9065507692159394 L 0.669781343590887 -1.9045358965854589 M 1.0418611560196367 -2.3149900513737696 L 1.03963848009118 -2.3170049240042503 Q 1.0563598175791928 -2.336939739594367 1.0550783639083412 -2.3630712890411463 Q 1.0537969102374896 -2.3892028384879254 1.0345337188575328 -2.4066650679520905 Q 1.0337928268813803 -2.4073366921622505 1.0297179210125433 -2.4110306253181317 Q 1.0256430151437064 -2.414724558474013 1.0249021231675541 -2.415396182684173 L 1.0316183652691562 -2.422805102445695 L 1.090889723361331 -2.369075165632879 L 1.0418611560196367 -2.3149900513737696 M 0.7764697881568017 -1.8078220103223903 L 0.7786924640852583 -1.8058071376919096 Q 0.7612302346210932 -1.7865439463119528 0.7628821342800209 -1.7600765847600937 Q 0.7645340339389489 -1.7336092232082345 0.7837972253189057 -1.7161469937440694 Q 0.7852790092712101 -1.714803745323749 0.788983469151971 -1.7114456242729479 Q 0.792687929032732 -1.708087503222147 0.792687929032732 -1.708087503222147 L 0.78597168693113 -1.700678583460625 L 0.7274412208151073 -1.7537368960632809 L 0.7764697881568017 -1.8078220103223903" fill="#ffffff" fill-rule="nonzero"></path></g><g transform="matrix(1,0,0,1,0,0)"><g transform="matrix(1,0,0,1,0,0)" clip-path="url(#SvgjsClipPath13210)"><g clip-path="url(#SvgjsClipPath13208d735ef03-b381-4a8d-8c9a-87f6cb3bd2f5)"><path d=" M 0.9639645834028849 -0.5434269080478441 C 0.9338612055448241 -0.5472633318577685 0.9055864035214001 -0.5334306934851626 0.8894303982059615 -0.5100751190011933 L 0.6711988359490852 -0.6060143977918069 L 0.6711988359490852 -0.6617536917629138 L 0.7859401768511418 -0.6617536917629138 L 0.7859401768511418 -0.8544784138480124 L 0.8810046075953799 -0.8544784138480124 C 0.8837008605907664 -0.8476875851601648 0.8873293287175359 -0.8412194463254885 0.891925866403819 -0.8352819530271384 C 0.9047689225600333 -0.818688523688512 0.9232984910176867 -0.8080899547332443 0.9441084011044167 -0.8054367270516145 C 0.9474858882342756 -0.805006473914053 0.9508562044785078 -0.8047913473452721 0.9542050080658624 -0.8047913473452721 C 0.9715011841958396 -0.8047913473452721 0.988216518590108 -0.8104778596467114 1.002113694933348 -0.8212341880857518 C 1.0187071242719743 -0.8340772442419659 1.029305693227242 -0.8526068126996195 1.031958920908872 -0.8734167227863493 L 1.031958920908872 -0.8734167227863493 C 1.034612148590502 -0.8942266328730795 1.0289973451453227 -0.9148285872766546 1.0161614598747344 -0.9314220166152809 C 1.0033184037185203 -0.9480154459539072 0.9847888352608669 -0.9586140149091749 0.9639789251741369 -0.9612600717051788 C 0.9431618442017806 -0.9639132993868086 0.9225670606838319 -0.9582984959416296 0.9059736313452054 -0.9454626106710415 C 0.8946364611704569 -0.9366926175504107 0.8861819870173713 -0.9252192005487676 0.8810691455660142 -0.9122183849087809 L 0.7282002057903734 -0.9122183849087809 L 0.7282002057903734 -0.7194936628236824 L 0.6712060068347117 -0.7194936628236824 L 0.6712060068347117 -0.8210477450594753 L 0.5596126847224814 -0.8210477450594753 C 0.5560917798801024 -0.8955819302563987 0.5379207557037502 -0.9663298878427798 0.5079464537869576 -1.0305164850813466 L 0.5292726676387616 -1.0305164850813466 L 0.7144105927315232 -1.205564974098289 L 0.7144105927315232 -1.2964200949800495 L 0.7898339677460737 -1.2964200949800495 C 0.7925302207414602 -1.289629266292202 0.7961586888682297 -1.2831611274575259 0.8007552265545128 -1.2772236341591756 C 0.8135982827107269 -1.2606302048205493 0.8321278511683805 -1.2500316358652817 0.8529377612551106 -1.2473784081836516 C 0.856315248384969 -1.24694815504609 0.8596783937435757 -1.2467330284773093 0.8630271973309303 -1.2467330284773093 C 0.8803233734609073 -1.2467330284773093 0.8970387078551756 -1.2524195407787486 0.9109358841984159 -1.2631758692177888 C 0.9275293135370419 -1.276018925374003 0.93812788249231 -1.2945484938316565 0.9407811101739396 -1.3153584039183865 C 0.9462524959065983 -1.3583191797039136 0.9157618902247322 -1.3977231962189314 0.8728011144392045 -1.4032017528372158 C 0.8364949205146306 -1.407812632294751 0.8028132707291826 -1.38671588678298 0.7899200183735859 -1.354160066040818 L 0.6566634507851288 -1.354160066040818 L 0.6566634507851288 -1.23043360544935 L 0.5062899792073452 -1.088256456142115 L 0.4767315886568624 -1.088256456142115 C 0.38254200595899945 -1.2404369908976576 0.21759012390350296 -1.3444148324750473 0.02814249654949874 -1.3538373761876468 C 0.018849028778167964 -1.3552070153422178 0.00946233949369879 -1.3559384456760726 -0.000003229532656634504 -1.3559384456760726 C -0.009468798559012281 -1.3559384456760726 -0.01884831695785527 -1.3552070153422178 -0.028148955614812232 -1.3538373761876468 C -0.2175965829688168 -1.3444148324750473 -0.382555635909939 -1.2404441617832835 -0.4767380477221761 -1.088256456142115 L -0.5062964382726589 -1.088256456142115 L -0.6566699098504426 -1.23043360544935 L -0.6566699098504426 -1.354160066040818 L -0.789897793896396 -1.354160066040818 C -0.7950178062333793 -1.3671608816808047 -0.8034722803864649 -1.3786271277968216 -0.8148094505612135 -1.3874042918030784 C -0.8314028798998396 -1.4002473479592927 -0.8520048343034148 -1.4058478096332196 -0.8728147443901448 -1.4032017528372158 C -0.8936246544768749 -1.4005485251555858 -0.9121613938201544 -1.3899499562003181 -0.9249972790907425 -1.3733565268616919 C -0.9378403352469566 -1.3567630975230656 -0.9434479678065096 -1.3361683140051164 -0.9407947401248797 -1.3153512330327604 C -0.9381415124432497 -1.2945413229460305 -0.927542943487982 -1.276004583602751 -0.9109566850349818 -1.2631686983321628 C -0.8970523378061157 -1.2524123698931224 -0.880344174297473 -1.246725857591683 -0.8630408272818701 -1.246725857591683 C -0.8596920236945156 -1.246725857591683 -0.856321707450283 -1.246940984160464 -0.8529513912060503 -1.2473712372980257 C -0.8236081272243484 -1.2511144395948115 -0.8001091350278583 -1.270690957353865 -0.789883452125144 -1.2964129240944235 L -0.7144242226824631 -1.2964129240944235 L -0.7144242226824631 -1.2055578032126628 L -0.529286297589701 -1.0305093141957204 L -0.507960083737897 -1.0305093141957204 C -0.5379343856546894 -0.9663227169571539 -0.5560982389454154 -0.8955747593707725 -0.5596263146734207 -0.8210405741738491 L -0.6545903530188948 -0.8210405741738491 L -0.6545903530188948 -0.7194864919380565 L -0.7282138357413127 -0.7194864919380565 L -0.7282138357413127 -0.912211214023155 L -0.8810756046313278 -0.912211214023155 C -0.886195616968311 -0.9252120296631416 -0.8946429202357706 -0.9366782757791586 -0.9059800904105192 -0.9454554397854154 C -0.9225735197491454 -0.9582984959416297 -0.9431683032670946 -0.9639061285011826 -0.9639853842394506 -0.9612529008195527 C -1.0069461600249776 -0.9557743442012681 -1.03744393659247 -0.9163703276862505 -1.0319653799741855 -0.8734095519007234 C -1.0293121522925555 -0.8525996418139933 -1.0187135833372878 -0.834062902470714 -1.0021201539986615 -0.8212270172001258 C -0.9882158067697955 -0.8104706887610854 -0.9715076432611528 -0.8047841764596462 -0.954211467131176 -0.8047841764596462 C -0.9508626635438214 -0.8047841764596462 -0.9474923472995888 -0.8049993030284268 -0.9441148601697301 -0.8054295561659885 C -0.9233049500830001 -0.8080827838476186 -0.9047682107397206 -0.8186813528028862 -0.8919323254691325 -0.8352747821415123 C -0.8873357877828493 -0.8412122754398625 -0.8837073196560796 -0.8476804142745388 -0.8810110666606935 -0.8544712429623862 L -0.7859466359164552 -0.8544712429623862 L -0.7859466359164552 -0.6617465208772878 L -0.6545831821332687 -0.6617465208772878 L -0.6545831821332687 -0.6060072269061809 L -0.8728290861613969 -0.5100679481155673 C -0.8890066041337135 -0.5334235225995366 -0.9172957479283896 -0.5472561609721426 -0.9473561004726943 -0.5434269080478441 C -0.9903168762582213 -0.5379483514295597 -1.0208074819400876 -0.4985443349145422 -1.0153360962074292 -0.45558355912901505 C -1.0126828685257991 -0.4347736490422849 -1.0020842995705315 -0.4162369096990055 -0.9854908702319053 -0.4034010244284172 C -0.9715865230030392 -0.392644695989377 -0.9548783594943965 -0.38695818368793766 -0.9375821833644197 -0.38695818368793766 C -0.9342333797770651 -0.38695818368793766 -0.9308630635328324 -0.38717331025671853 -0.9274927472885999 -0.38760356339428004 C -0.9066828372018698 -0.39025679107591005 -0.8881460978585903 -0.40084818914555176 -0.8753030417023762 -0.4174416184841777 C -0.8672071118305918 -0.4279039406125512 -0.8620010488660963 -0.4399653702355285 -0.8599143211489225 -0.45266500867922177 L -0.5968360401868743 -0.5683098811701573 L -0.5968360401868743 -0.7632934322274544 L -0.5593968463333879 -0.7632934322274544 C -0.5554600301246991 -0.6913909620552829 -0.5378913603409332 -0.6230595929248728 -0.509258014036208 -0.5608306474622116 L -0.529279126704075 -0.5608306474622116 L -0.714417051796837 -0.3857821584452692 L -0.714417051796837 -0.2949270375635087 L -0.7898762812395179 -0.2949270375635087 C -0.8001019641422322 -0.3206490043040673 -0.8236081272243484 -0.3402255220631205 -0.8529442203204243 -0.34396872435990633 C -0.8737756430640324 -0.34662912292716275 -0.8943560848107296 -0.3410143194819837 -0.9109495141493558 -0.3281712633257692 C -0.9275429434879819 -0.3153282071695551 -0.9381415124432497 -0.2967986387119015 -0.9407875692392537 -0.27598872862517143 C -0.9434407969208836 -0.2551788185384416 -0.9378331643613306 -0.23457686413486645 -0.9249901082051164 -0.21798343479624016 C -0.9121470520489022 -0.2013900054576141 -0.8936174835912488 -0.19079860738797239 -0.8728075735045188 -0.18814537970634237 C -0.8694300863746601 -0.18771512656878064 -0.8660669410160535 -0.18749999999999978 -0.862710966543073 -0.18749999999999978 C -0.8454147904130961 -0.18749999999999978 -0.8286994560188274 -0.19317934141581317 -0.8148022796755874 -0.2039428407404793 C -0.8034651095008388 -0.2127200047467359 -0.7950106353477532 -0.22418625086275323 -0.78989062301077 -0.23718706650274002 L -0.6566627389648165 -0.23718706650274002 L -0.6566627389648165 -0.3609135270942079 L -0.5062892673870328 -0.5030906764014428 L -0.4784734020436746 -0.5030906764014428 C -0.37998845885582133 -0.3418604839858541 -0.2023512801278835 -0.2340103641704101 0.000011112238595067936 -0.2340103641704101 C 0.20237350460507386 -0.2340103641704101 0.3800106833330119 -0.34186048398585456 0.47849562652086486 -0.5030906764014431 L 0.5063114918642231 -0.5030906764014431 L 0.6566849634420067 -0.3609135270942079 L 0.6566849634420067 -0.23718706650274002 L 0.78991284748796 -0.23718706650274002 C 0.795032859824943 -0.22418625086275323 0.8034801630924027 -0.21272000474673614 0.8148173332671511 -0.2039428407404793 C 0.8287216804960174 -0.19318651230143913 0.8454298440046601 -0.18749999999999978 0.8627260201346367 -0.18749999999999978 C 0.8660748237219915 -0.18749999999999978 0.869445139966224 -0.18770795568315424 0.8728226270960824 -0.18814537970634237 C 0.9157834028816096 -0.19362393632462682 0.946274008563476 -0.23302795283964461 0.9408026228308175 -0.27598872862517143 C 0.9381493951491879 -0.2967986387119015 0.9275508261939198 -0.3153282071695551 0.9109573968552938 -0.3281712633257692 C 0.8943639675166677 -0.34101431948198346 0.8737620131130925 -0.3466291229271623 0.8529521030263625 -0.34396872435990633 C 0.8321421929396324 -0.34131549667827676 0.8136054535963528 -0.33071692772300865 0.8007695683257647 -0.31413066927000877 C 0.7961730306394816 -0.3081931759716583 0.7925445625127121 -0.30172503713698173 0.7898483095173261 -0.29493420844913465 L 0.7144249345027753 -0.29493420844913465 L 0.7144249345027753 -0.38578932933089516 L 0.5292870094100135 -0.5608378183478375 L 0.5092658967421464 -0.5608378183478375 C 0.5379064139324978 -0.6230667638104987 0.5554679128306375 -0.6913909620552829 0.5594047290393263 -0.7633006031130806 L 0.613466035773943 -0.7633006031130806 L 0.613466035773943 -0.5683170520557833 L 0.8765443167359908 -0.45267217956484807 C 0.8786310444531649 -0.43997254112115414 0.8838371074176603 -0.4279111114981772 0.8919330372894445 -0.4174487893698041 C 0.9047760934456588 -0.4008553600311777 0.9233056619033122 -0.39025679107591005 0.9441155719900423 -0.387610734279906 C 0.9474930591199009 -0.3871804811423445 0.9508633753641333 -0.3869653545735634 0.9542121789514879 -0.3869653545735634 C 0.9715083550814645 -0.3869653545735634 0.9882236894757332 -0.3926446959893768 1.0021208658189737 -0.40340819531404315 C 1.0187142951575996 -0.41624408058463147 1.0293128641128677 -0.43478081992791084 1.0319660917944973 -0.45559073001464057 C 1.037437477527156 -0.4985515058001677 1.00694687184529 -0.5379555223151856 0.9639860960597624 -0.5434340789334701 Z M 0.9334022688647579 -0.8859657726318965 C 0.9341050156561088 -0.8914801836783112 0.9369088319358851 -0.8963850694465135 0.9413045848246395 -0.8997840692332503 C 0.9449832491507915 -0.9026309108267829 0.9494076855820501 -0.9041367968082484 0.9539898814970811 -0.9041367968082484 C 0.9548790713147084 -0.9041367968082484 0.9557682611323357 -0.9040794297232402 0.9566646218355894 -0.9039646955532239 C 0.9621790328820039 -0.9032619487618733 0.9670839186502065 -0.9004581324820967 0.9704829184369432 -0.8960623795933422 C 0.97388191822368 -0.8916666267045876 0.9753734624338934 -0.8862167536288073 0.9746635447569167 -0.8807023425823925 C 0.9732150258604595 -0.8693293179795141 0.962795729045842 -0.8612333881077295 0.9514011917860856 -0.8626962487754392 C 0.9458867807396707 -0.8633989955667898 0.9409818949714681 -0.8662028118465664 0.9375828951847318 -0.8705985647353207 C 0.9341838953979951 -0.8749943176240753 0.9326923511877814 -0.8804513615854817 0.9334022688647579 -0.8859586017462705 Z M 0.8422387999010787 -1.3279146246495592 C 0.8435725846275197 -1.3384056303204366 0.8525505334313053 -1.3460856488259114 0.8628550960759058 -1.3460856488259114 C 0.8637299441222808 -1.3460856488259114 0.8646119630542821 -1.346028281740903 0.8655011528719099 -1.3459135475708868 C 0.8768813483604145 -1.3444650286744293 0.8849557655753209 -1.3340242192029341 0.8835072466788634 -1.3226511946000556 C 0.8828044998875129 -1.3171367835536407 0.8800006836077363 -1.3122318977854386 0.8756049307189819 -1.3088328979987018 C 0.8712091778302273 -1.305433898211965 0.8657377920975686 -1.3039495248873774 0.8602448937080323 -1.304652271678728 C 0.8547304826616173 -1.3053550184700786 0.849825596893415 -1.3081588347498552 0.8464265971066782 -1.3125545876386098 C 0.8430275973199419 -1.3169503405273641 0.841543223995354 -1.3224073844887707 0.8422459707867047 -1.3279146246495592 Z M -0.8602513527733457 -1.3046522716787279 C -0.8657657638197604 -1.3039351831161252 -0.8712156368955408 -1.3054338982119649 -0.8756113897842953 -1.3088328979987016 C -0.8800071426730498 -1.3122318977854386 -0.8828109589528264 -1.317143954439267 -0.883513705744177 -1.3226511946000554 L -0.883513705744177 -1.3226511946000554 C -0.8842164525355276 -1.3281656056464701 -0.8827320792109401 -1.3336154787222505 -0.8793330794242034 -1.338011231611005 C -0.8759340796374666 -1.3424069844997595 -0.8710220229836382 -1.345210800779536 -0.8655147828228495 -1.3459135475708868 C -0.8646255930052222 -1.346028281740903 -0.8637435740732209 -1.3460856488259112 -0.8628687260268456 -1.3460856488259112 C -0.8525641633822449 -1.3460856488259112 -0.8435862145784594 -1.3384056303204366 -0.8422524298520183 -1.3279146246495592 C -0.840803910955561 -1.3165344291610546 -0.8488783281704672 -1.3061007905751854 -0.8602513527733457 -1.3046522716787279 Z M -0.9375965251356717 -0.8706129065065729 C -0.9409955249224085 -0.8662171536178181 -0.9459075815762369 -0.8634133373380418 -0.9514148217370255 -0.8627105905466912 C -0.9569220618978141 -0.8620078437553406 -0.9623791058592206 -0.8634922170799281 -0.9667748587479751 -0.8668912168666648 C -0.9711706116367296 -0.8702902166534016 -0.9739744279165061 -0.8752022733072299 -0.9746771747078568 -0.8807095134680186 C -0.9761256936043142 -0.8920897089565232 -0.9680512763894079 -0.9025233475423925 -0.9566710809009032 -0.9039718664388499 C -0.9511781825113667 -0.9046817841158266 -0.9457067967787082 -0.903190239905613 -0.9413110438899537 -0.8997912401188762 C -0.9369152910011992 -0.8963922403321395 -0.9341114747214226 -0.8914801836783112 -0.933408727930072 -0.8859729435175223 C -0.9327059811387214 -0.8804585324711078 -0.934190354463309 -0.8750086593953275 -0.9375893542500457 -0.8706129065065729 Z M -0.9209744122545414 -0.4527797428492385 C -0.9243734120412781 -0.44839116084610997 -0.9292782978094806 -0.44558017368070746 -0.9347927088558952 -0.44487742688935683 C -0.9402927781310578 -0.4441890218692581 -0.9457569929780903 -0.44566622430821967 -0.9501527458668448 -0.44905805320933045 C -0.9545484987555992 -0.4524570529960672 -0.9573523150353758 -0.4573691096498955 -0.9580550618267264 -0.46287634981068415 C -0.9595035807231839 -0.47424937441356274 -0.9514291635082776 -0.4846901838850579 -0.940056138905399 -0.4861387027815153 C -0.9286831143025203 -0.4875800507923467 -0.9182423048310251 -0.47951280446306666 -0.9167937859345677 -0.4681326089745621 C -0.9160910391432171 -0.4626181979281472 -0.9175754124678047 -0.457168324852367 -0.9209744122545414 -0.4527725719636122 Z M -0.8422524298520183 -0.26342533700837234 C -0.8429551766433689 -0.25791092596195786 -0.8457589929231455 -0.25300604019375506 -0.8501547458118999 -0.24960704040701875 C -0.8545504987006544 -0.246208040620282 -0.8600003717764348 -0.24473083818132024 -0.8655147828228495 -0.24542641408704524 C -0.8710291938692641 -0.24612916087839576 -0.8759340796374666 -0.24894014804379827 -0.8793330794242034 -0.2533287300469267 C -0.8827320792109401 -0.2577173120500549 -0.8842164525355276 -0.2631815268970874 -0.883513705744177 -0.26868876705787637 C -0.8828109589528264 -0.2742031781042913 -0.8800071426730498 -0.27910806387249365 -0.8756113897842953 -0.28250706365922995 C -0.8719327254581436 -0.2853539052527627 -0.867501118141259 -0.2868597912342288 -0.8629260931118538 -0.2868597912342288 C -0.8620369032942264 -0.2868597912342288 -0.8611477134765991 -0.2868024241492204 -0.8602513527733457 -0.2866876899792039 C -0.8488711572848411 -0.28523917108274666 -0.8407967400699349 -0.2747983616112515 -0.8422452589663922 -0.2634181661227468 Z M 0.8464194262210523 -0.278785374019322 C 0.8498184260077886 -0.28318112690807684 0.8547304826616173 -0.28598494318785295 0.8602377228224061 -0.2866876899792037 C 0.8611340835256593 -0.28680242414921997 0.8620232733432864 -0.28685979123422833 0.8629052922752878 -0.28685979123422833 C 0.867487488190319 -0.28685979123422833 0.8719119246215776 -0.2853539052527627 0.8755905889477296 -0.28250706365922973 C 0.8799863418364839 -0.2791080638724932 0.8827901581162605 -0.27419600721866444 0.8834929049076112 -0.2686887670578759 C 0.8849414238040685 -0.25731574245499744 0.8768670065891626 -0.24687493298350227 0.8654868111006575 -0.24541924320141884 C 0.859979570939869 -0.2447236672956945 0.8545225269784624 -0.24620086973465605 0.8501267740897076 -0.24959986952139235 C 0.8457310212009532 -0.2529988693081291 0.8429272049211767 -0.25791092596195786 0.8422244581298262 -0.2634181661227466 C 0.8415217113384754 -0.2689325771691611 0.8430060846630634 -0.27438962113056764 0.8464050844497997 -0.27877820313369606 Z M 0.31940952890745855 -0.8212198463144996 C 0.3175666113015698 -0.8945564936118767 0.30782854862142517 -0.9653976727113962 0.29089808765837577 -1.0305093141957204 L 0.4477612107277138 -1.0305093141957204 C 0.48117753774499894 -0.967419862457936 0.50167909974981 -0.8964782909596519 0.5056445995010028 -0.8212198463144996 L 0.31940952890745833 -0.8212198463144996 Z M 0.026937787764326204 -1.299345816315468 C 0.08500044867826584 -1.287829374000069 0.1397645022042331 -1.239318332739997 0.18342085389548468 -1.159807552918611 C 0.1956185303453566 -1.1375921492491796 0.20648959295441327 -1.1135983659444937 0.2161129214645412 -1.0882421143708627 L 0.026937787764326204 -1.0882421143708627 L 0.026937787764326204 -1.2993386454298421 Z M -0.026951417715265658 -1.299345816315468 L -0.026951417715265658 -1.0882492852564887 L -0.21612655141548098 -1.0882492852564887 C -0.2065103937909788 -1.1135983659444937 -0.19563216029629615 -1.1375993201348056 -0.18343448384642436 -1.159814723804237 C -0.13977813215517276 -1.239325503625623 -0.08501407862920551 -1.2878365448856948 -0.026951417715265658 -1.299352987201094 Z M -0.026951417715265658 -1.0305093141957202 L -0.026951417715265658 -0.8212198463144996 L -0.26553395337880636 -0.8212198463144996 C -0.263583472488527 -0.8952305568607232 -0.2530996377032757 -0.9662079827871373 -0.23506486035381813 -1.0305093141957204 L -0.026951417715265658 -1.0305093141957204 Z M -0.026951417715265658 -0.7673234699492816 L -0.026951417715265658 -0.5608306474622116 L -0.23506486035381813 -0.5608306474622116 C -0.2528701693632428 -0.6243144979094275 -0.26328946617785987 -0.6943238542763279 -0.2654263900944158 -0.7673234699492816 L -0.026951417715265658 -0.7673234699492816 Z M -0.026951417715265658 -0.5030906764014431 L -0.026951417715265658 -0.2919941453424635 C -0.08501407862920551 -0.30351058765786276 -0.13977813215517276 -0.352021628917935 -0.18343448384642436 -0.43153240873932064 C -0.19563216029629615 -0.45374781240875206 -0.20650322290535283 -0.477741595713438 -0.21612655141548098 -0.5030978472870691 L -0.026951417715265658 -0.5030978472870691 Z M 0.026937787764326204 -0.2919941453424635 L 0.026937787764326204 -0.5030906764014431 L 0.2161129214645412 -0.5030906764014431 C 0.20649676384003923 -0.4777415957134383 0.1956185303453566 -0.4537406415231261 0.18342085389548468 -0.4315252378536951 C 0.1397645022042331 -0.352014458032309 0.08500044867826584 -0.3035034167722368 0.026937787764326204 -0.29198697445683797 Z M 0.026937787764326204 -0.5608306474622116 L 0.026937787764326204 -0.7673234699492816 L 0.26541276014347615 -0.7673234699492816 C 0.2632758362269201 -0.6943238542763279 0.252856539412303 -0.6243144979094275 0.23505123040287823 -0.5608306474622116 L 0.026937787764326204 -0.5608306474622116 Z M 0.026937787764326204 -0.8212198463144996 L 0.026937787764326204 -1.0305093141957204 L 0.23505123040287823 -1.0305093141957204 C 0.25308600775233603 -0.9662079827871373 0.2635698425375872 -0.8952305568607232 0.26552032342786647 -0.8212198463144996 L 0.026937787764326204 -0.8212198463144996 Z M 0.41205737119572605 -1.0882492852564887 L 0.2733867849596181 -1.0882492852564887 C 0.26131818445101485 -1.1230926185133532 0.24709114736897742 -1.155842053167418 0.230669819285376 -1.1857518171135761 C 0.21257767485091006 -1.2186948656795438 0.1925278786405391 -1.2471632816148706 0.17094351290619825 -1.2709204256938975 C 0.26870419664582257 -1.2357544025838618 0.352617900241589 -1.1713311661196362 0.41206454208135224 -1.0882492852564887 Z M -0.17094997197151163 -1.2709204256938975 C -0.1925343377058527 -1.2471632816148706 -0.21259130480184985 -1.2186948656795438 -0.2306762783506896 -1.1857518171135761 C -0.24709760643429124 -1.1558492240530442 -0.26132464351632867 -1.1230997893989794 -0.2733932440249318 -1.0882492852564887 L -0.41206383026103965 -1.0882492852564887 C -0.35261718842127676 -1.1713311661196362 -0.2687034848255102 -1.2357472316982356 -0.17094280108588567 -1.2709204256938975 Z M -0.29091171760931545 -1.0305093141957202 C -0.30784217857236484 -0.9654048435970222 -0.3175802412525096 -0.8945564936118767 -0.31942315885839845 -0.8212198463144996 L -0.5056582294519426 -0.8212198463144996 C -0.5016927297007497 -0.8964782909596519 -0.4811983385815649 -0.967419862457936 -0.4477748406786536 -1.0305093141957204 L -0.29091171760931545 -1.0305093141957204 Z M -0.5056582294519425 -0.7673234699492816 L -0.31936579177339 -0.7673234699492816 C -0.3173507729124766 -0.6949835757539224 -0.30763422288921016 -0.6251104662139165 -0.2909188884949413 -0.5608306474622116 L -0.44925921400324087 -0.5608306474622116 C -0.4818078638597769 -0.6232173524086453 -0.5017572676713837 -0.6931765125761635 -0.5056654003375683 -0.7673234699492816 Z M -0.414042994693823 -0.5030906764014431 L -0.2733932440249318 -0.5030906764014431 C -0.26132464351632867 -0.4682473431445785 -0.24709760643429113 -0.43549073760488743 -0.2306762783506896 -0.4055881445443553 C -0.21153001372919789 -0.3707161277449864 -0.19018945810614185 -0.3408422182269586 -0.16714940258971756 -0.3162891058434425 C -0.2676278519816062 -0.3515268378097385 -0.3537286756933111 -0.4175850361966983 -0.4140429946938231 -0.5030906764014428 Z M 0.16713577263877766 -0.3162891058434425 C 0.19017582815520218 -0.34084938911258456 0.21151638377825832 -0.3707161277449864 0.23066264839974981 -0.4055881445443553 C 0.24708397648335145 -0.43549073760488743 0.26131101356538866 -0.4682401722589521 0.2733796140739919 -0.5030906764014428 L 0.414029364742883 -0.5030906764014428 C 0.353715045742371 -0.4175850361966983 0.2676142220306661 -0.3515268378097385 0.16713577263877766 -0.3162891058434425 Z M 0.29089808765837577 -0.5608306474622116 C 0.3076134220526443 -0.6251104662139165 0.31732997207591085 -0.6949835757539223 0.31934499093682445 -0.7673234699492816 L 0.5056374286153769 -0.7673234699492816 C 0.5017292959491924 -0.6931765125761635 0.48177989213758554 -0.6232173524086453 0.4492312422810496 -0.5608306474622116 L 0.2908909167727498 -0.5608306474622116 Z M 0.9746635447569167 -0.46288352069631045 C 0.9739607979655662 -0.4573691096498955 0.9711569816857895 -0.45246422388169316 0.9667612287970351 -0.4490652240949564 C 0.9623654759082807 -0.44566622430821967 0.9569156028325001 -0.44418185098363216 0.9514011917860856 -0.4448845977749828 C 0.9458867807396707 -0.4455873445663334 0.9409818949714681 -0.44839833173173627 0.9375828951847318 -0.45278691373486446 C 0.9341838953979951 -0.4571826666236193 0.9326923511877814 -0.4626397105850254 0.9334022688647579 -0.46814695074581403 C 0.9347360535911993 -0.4786379564166916 0.9437140023949848 -0.48631797492216633 0.9540185650395854 -0.48631797492216633 C 0.9548934130859603 -0.48631797492216633 0.9557754320179617 -0.48626060783715797 0.9566646218355894 -0.48614587366714157 C 0.9680448173240939 -0.4846973547706843 0.9761192345390002 -0.47425654529918904 0.9746707156425429 -0.46288352069631045 Z" fill="#3682ae" transform="matrix(1,0,0,1,0,0)" fill-rule="nonzero"></path></g></g></g></g><defs><clipPath id="SvgjsClipPath13210"><path d=" M -1.0326018823907328 -1.4038427397850801 h 2.0652037647814656 v 1.2163427397850801 h -2.0652037647814656 Z"></path></clipPath><clipPath id="SvgjsClipPath13208d735ef03-b381-4a8d-8c9a-87f6cb3bd2f5"><path d=" M -1.0326018823907328 -1.4038427397850801 L 1.0326018823907328 -1.4038427397850801 L 1.0326018823907328 -0.1875 L -1.0326018823907328 -0.1875 Z"></path></clipPath></defs></svg>